<svg width="100" height="73" viewBox="0 0 100 73" fill="none" xmlns="http://www.w3.org/2000/svg">
<g filter="url(#filter0_d_865_3874)">
<path d="M34.6772 57.3637C32.175 57.3637 29.6898 56.9944 27.2558 56.2595C23.9491 55.26 20.9337 53.6451 18.295 51.4573C15.7476 49.345 13.6549 46.7904 12.0777 43.8652C10.5005 40.94 9.51573 37.7906 9.1513 34.5009C7.92638 23.4742 14.2387 12.5157 24.4671 8.08284C27.5142 6.76285 30.7489 6.0535 34.0824 5.97427C37.4159 5.89627 40.6812 6.45083 43.7867 7.62578C47.0032 8.84217 49.9053 10.6716 52.4136 13.0642C54.0444 14.6194 55.4509 16.3611 56.6112 18.2601C57.2645 19.329 56.8648 20.727 55.741 21.2803L55.7227 21.2901C54.7403 21.7739 53.5471 21.4351 52.9779 20.5003C52.009 18.9133 50.834 17.4569 49.4689 16.1551C41.0736 8.14866 27.0595 8.52162 19.1067 16.9693C11.478 25.0745 11.5305 38.3439 19.1725 46.4211C21.7162 49.1098 24.9498 51.1038 28.4917 52.174C33.9666 53.8279 39.7573 53.2502 44.7971 50.548C49.837 47.8459 53.524 43.3435 55.1779 37.8686L58.6979 26.2153C59.5706 23.3255 60.5871 19.964 61.617 16.5561L61.8754 15.6993C62.937 12.1866 65.3027 9.29679 68.5375 7.56362C71.7722 5.83045 75.4872 5.45993 79.0011 6.52152L79.2266 6.58978C82.7393 7.65138 85.6291 10.0171 87.3635 13.2519C89.0979 16.4867 89.4672 20.2029 88.4068 23.7155L88.3398 23.9398C86.982 28.4336 83.4718 31.8878 78.9487 33.1822L78.9353 33.1858C76.3514 33.9074 73.6383 33.8623 71.0897 33.053C69.4187 32.5228 67.8757 31.6867 66.5337 30.5909C65.5038 29.75 65.4892 28.1813 66.5045 27.322L66.5215 27.3074C67.3077 26.6432 68.4497 26.6456 69.2493 27.294C71.6065 29.2076 74.7925 29.9072 77.7799 29.0747C80.8976 28.1801 83.317 25.7997 84.2518 22.7051L84.3201 22.4796C85.0514 20.059 84.7954 17.4971 83.601 15.2678C82.4053 13.0386 80.4137 11.4078 77.9931 10.6765L77.7677 10.6083C72.7705 9.09813 67.4747 11.9368 65.9633 16.934L65.7049 17.7908C64.675 21.1987 63.6597 24.5602 62.787 27.45L59.2671 39.1032C58.2652 42.4209 56.6417 45.4436 54.4442 48.0884C52.3222 50.6419 49.7553 52.7358 46.8167 54.3106C43.8782 55.8853 40.7141 56.864 37.4123 57.2175C36.5006 57.315 35.5901 57.3637 34.6809 57.3637H34.6772Z" fill="#0168FC"/>
<path d="M69.698 57.3568C67.0227 57.3568 64.3474 56.3355 62.3156 54.2927C58.2654 50.2218 58.2825 43.6158 62.3534 39.5656C66.4243 35.5154 73.0303 35.5325 77.0805 39.6034C81.1306 43.6743 81.1136 50.2803 77.0427 54.3305C75.0146 56.3489 72.3563 57.3568 69.698 57.3568ZM69.698 40.8064C68.1294 40.8064 66.562 41.4012 65.3639 42.592C62.9616 44.9821 62.9518 48.8799 65.342 51.2822C67.7321 53.6833 71.6299 53.6943 74.0322 51.3041C76.4345 48.914 76.4443 45.0162 74.0541 42.6139C72.8548 41.4085 71.2764 40.8064 69.698 40.8064Z" fill="#0168FC"/>
<path d="M50.4971 39.0108L50.4966 39.0119C50.0465 40.1013 50.5647 41.3493 51.6541 41.7994L61.0149 45.6672C62.1043 46.1173 63.3522 45.5991 63.8023 44.5098L63.8028 44.5086C64.2529 43.4193 63.7347 42.1713 62.6454 41.7212L53.2845 37.8534C52.1952 37.4033 50.9472 37.9215 50.4971 39.0108Z" fill="#0168FC"/>
</g>
<defs>
<filter id="filter0_d_865_3874" x="0" y="0.927734" width="100" height="71.4355" filterUnits="userSpaceOnUse" color-interpolation-filters="sRGB">
<feFlood flood-opacity="0" result="BackgroundImageFix"/>
<feColorMatrix in="SourceAlpha" type="matrix" values="0 0 0 0 0 0 0 0 0 0 0 0 0 0 0 0 0 0 127 0" result="hardAlpha"/>
<feOffset dx="1" dy="5"/>
<feGaussianBlur stdDeviation="5"/>
<feComposite in2="hardAlpha" operator="out"/>
<feColorMatrix type="matrix" values="0 0 0 0 0 0 0 0 0 0 0 0 0 0 0 0 0 0 0.1 0"/>
<feBlend mode="normal" in2="BackgroundImageFix" result="effect1_dropShadow_865_3874"/>
<feBlend mode="normal" in="SourceGraphic" in2="effect1_dropShadow_865_3874" result="shape"/>
</filter>
</defs>
</svg>
